<svg xmlns="http://www.w3.org/2000/svg" width="60" height="22" viewBox="0 0 90 34">
    <g fill="#FFF" fill-rule="evenodd">
        <path d="M18.941 17.941c0 1.31 1.07 2.378 2.385 2.378a2.385 2.385 0 0 0 2.388-2.378V2.381C23.714 1.067 22.645 0 21.326 0h-2.978a2.598 2.598 0 0 0-2.598 2.59 2.594 2.594 0 0 0 2.6 2.584h.591V17.94zM30.197 5.174V17.94a2.385 2.385 0 0 0 4.77 0V2.381c0-1.313-1.07-2.381-2.388-2.381H29.6A2.6 2.6 0 0 0 27 2.59a2.596 2.596 0 0 0 2.603 2.584h.594zM41.595 5.174h4.967L49.557 0h-7.962A2.596 2.596 0 0 0 39 2.59a2.591 2.591 0 0 0 2.595 2.584M51.326 1.19L42.32 16.745a2.375 2.375 0 0 0 .873 3.252c1.145.66 2.6.268 3.262-.869L55.46 3.572a2.378 2.378 0 0 0-.875-3.257 2.398 2.398 0 0 0-3.26.875zM69.06 0h-7.965A2.593 2.593 0 0 0 58.5 2.587a2.593 2.593 0 0 0 2.595 2.587h4.967L69.06 0zM62.692 19.997c1.142.66 2.6.27 3.262-.87l9.007-15.553c.66-1.144.265-2.6-.875-3.26a2.403 2.403 0 0 0-3.262.875L61.82 16.747a2.375 2.375 0 0 0 .872 3.25M6.128 25.5l-2.057 5.682-2.043-5.627-.016-.055H0l2.979 7.709.02.05H5.14l2.958-7.649.042-.11zM22.917 28.977h-1.636v-1.895h1.636c.628 0 1.048.374 1.048.934 0 .574-.42.961-1.048.961m2.88-.945c0-1.51-1.067-2.532-2.651-2.532H19.5v7.758h1.78v-2.702h1.062l1.5 2.702h2.06l-1.745-2.924c.778-.223 1.64-.946 1.64-2.302M31.584 31.68h-1.3v-4.598h1.313c1.395 0 2.298.903 2.298 2.293 0 1.357-.948 2.304-2.311 2.304m0-6.179H28.5v7.758h3.097c2.458 0 4.113-1.558 4.113-3.883 0-2.32-1.657-3.875-4.126-3.875M41.917 30.588h2.012v.803c-.305.257-.898.535-1.531.535-1.348 0-2.322-1.019-2.322-2.417 0-1.401.974-2.417 2.322-2.417.816 0 1.434.492 1.738.953l.04.063 1.473-.807-.044-.068c-.502-.79-1.466-1.733-3.207-1.733-2.404 0-4.148 1.686-4.148 4.009 0 2.322 1.744 4.006 4.148 4.006 1.3 0 2.44-.495 3.293-1.453l.016-.016v-3.027h-3.79v1.569zM53.974 30.093c0 1.07-.635 1.71-1.702 1.71-1.08 0-1.717-.64-1.717-1.71V25.5H48.75v4.64c0 2.066 1.284 3.254 3.522 3.254 2.233 0 3.515-1.188 3.515-3.254V25.5h-1.813v4.593zM58.5 33.258h1.778V25.5H58.5zM66.834 31.68H65.53v-4.598h1.316c1.397 0 2.296.903 2.296 2.293 0 1.357-.949 2.304-2.31 2.304m0-6.179H63.75v7.758h3.097c2.458 0 4.113-1.558 4.113-3.883 0-2.32-1.66-3.875-4.126-3.875M73.5 33.258h5.553V31.68H75.28v-1.576h3.69v-1.579h-3.69v-1.44h3.772V25.5H73.5zM87.698 25.5v4.614l-3.386-4.577-.026-.037H82.5v7.758h1.78V28.47l3.515 4.79h1.69V25.5zM11.958 30.55l1.113-3.063 1.117 3.063h-2.23zm1.121-6.226c.363 0 .649.29.649.66a.65.65 0 0 1-.649.664.673.673 0 0 1-.664-.665c0-.356.304-.66.664-.66zm1.726.66a1.73 1.73 0 0 0-1.726-1.734c-.959 0-1.741.775-1.741 1.733 0 .446.184.857.47 1.17l-2.763 7.162L9 33.42h2.012l.48-1.288h3.158l.48 1.288h2.013l-2.808-7.256a1.7 1.7 0 0 0 .47-1.18z"/>
    </g>
</svg>
