<svg class="logo__svg" xmlns="http://www.w3.org/2000/svg" viewBox="0 0 120 45" fit="" height="100%" width="100%" preserveAspectRatio="xMidYMid meet" focusable="false">
    <g fill-rule="evenodd" fill="#fff">
        <path d="M25.255 23.922a3.18 3.18 0 0 0 3.18 3.17 3.18 3.18 0 0 0 3.184-3.17V3.173A3.18 3.18 0 0 0 28.435 0h-3.971A3.464 3.464 0 0 0 21 3.453c0 1.902 1.555 3.446 3.467 3.446h.788v17.023zM40.262 6.899v17.023a3.18 3.18 0 0 0 6.36 0V3.173A3.18 3.18 0 0 0 43.44 0h-3.972C37.558 0 36 1.55 36 3.453c0 1.902 1.558 3.446 3.47 3.446h.792zM55.46 6.899h6.623L66.075 0H55.46A3.46 3.46 0 0 0 52 3.453a3.455 3.455 0 0 0 3.46 3.446M68.434 1.586L56.43 22.327a3.167 3.167 0 0 0 1.162 4.336 3.189 3.189 0 0 0 4.35-1.159l12.006-20.74A3.17 3.17 0 0 0 72.78.42a3.197 3.197 0 0 0-4.347 1.166zM92.079 0H81.46A3.458 3.458 0 0 0 78 3.45a3.458 3.458 0 0 0 3.46 3.449h6.623L92.079 0zM83.589 26.663c1.523.88 3.467.36 4.35-1.16L99.948 4.766A3.183 3.183 0 0 0 98.782.419a3.204 3.204 0 0 0-4.35 1.166L82.426 22.33a3.167 3.167 0 0 0 1.163 4.333M8.17 34l-2.742 7.576-2.724-7.503L2.683 34H0l3.972 10.278.028.066h2.854l3.943-10.197.056-.147zM30.556 38.636h-2.181V36.11h2.181c.837 0 1.398.499 1.398 1.246 0 .765-.56 1.281-1.398 1.281m3.839-1.26c0-2.014-1.422-3.376-3.534-3.376H26v10.344h2.375v-3.603h1.414l2 3.603h2.746l-2.326-3.9c1.037-.296 2.186-1.26 2.186-3.068M42.112 42.24h-1.734v-6.131h1.751c1.86 0 3.065 1.204 3.065 3.058 0 1.808-1.265 3.072-3.082 3.072m0-8.239H38v10.344h4.13c3.277 0 5.484-2.077 5.484-5.177 0-3.093-2.21-5.167-5.502-5.167M55.89 40.783h2.682v1.072c-.406.342-1.198.712-2.042.712-1.797 0-3.096-1.358-3.096-3.222 0-1.868 1.3-3.222 3.096-3.222 1.09 0 1.912.656 2.318 1.27l.053.084 1.965-1.075-.06-.09C60.137 35.256 58.852 34 56.53 34 53.325 34 51 36.248 51 39.345c0 3.097 2.325 5.342 5.53 5.342 1.734 0 3.254-.66 4.392-1.938l.02-.021v-4.036H55.89v2.091zM71.966 40.124c0 1.427-.848 2.28-2.27 2.28-1.439 0-2.29-.853-2.29-2.28V34H65v6.186c0 2.755 1.713 4.34 4.696 4.34 2.977 0 4.686-1.585 4.686-4.34V34h-2.416v6.124zM78 44.344h2.371V34H78zM89.112 42.24h-1.737v-6.131h1.754c1.863 0 3.061 1.204 3.061 3.058 0 1.808-1.264 3.072-3.078 3.072m0-8.239H85v10.344h4.13c3.277 0 5.484-2.077 5.484-5.177 0-3.093-2.214-5.167-5.502-5.167M98 44.344h7.404V42.24h-5.03v-2.101h4.921v-2.106h-4.92v-1.92h5.029V34H98zM116.93 34v6.151l-4.513-6.102-.035-.049H110v10.344h2.375V37.96l4.685 6.385h2.252V34zM15.944 40.733l1.484-4.084 1.489 4.084h-2.973zm1.495-8.302c.483 0 .865.388.865.88 0 .5-.382.887-.865.887a.898.898 0 0 1-.886-.887c0-.475.406-.88.886-.88zm2.3.88A2.307 2.307 0 0 0 17.44 31a2.318 2.318 0 0 0-2.322 2.311c0 .594.245 1.142.627 1.56l-3.684 9.55-.06.139h2.683l.64-1.718h4.21l.641 1.718h2.683l-3.744-9.674c.392-.412.627-.964.627-1.575z"></path>
    </g>
</svg>